{"title":"Big Wet Anal Butts - Nikki Sexx","uid":11095820,"size":231586053,"categoryP":"porn","categoryS":"movie_clips","magnet":"?xt=urn:btih:680abbc42255c4f28bc25ce6a412ca17958e6e25&amp;dn=Big+Wet+Anal+Butts+-+Nikki+Sexx&amp;tr=udp%3A%2F%2Ftracker.openbittorrent.com%3A80&amp;tr=udp%3A%2F%2Fopen.demonii.com%3A1337&amp;tr=udp%3A%2F%2Ftracker.coppersurfer.tk%3A6969&amp;tr=udp%3A%2F%2Fexodus.desync.com%3A6969","seeders":1,"leechers":0,"uploader":"supertongo","files":1,"time":1411595265,"description":"Big Wet Anal Butts - Nikki Sexx video in ipod/psp/mobile compatible resolution\n\n\n:::Media info:::\n\nGeneral\nFormat                         : MPEG-4\nFormat profile                 : Base Media\nCodec ID                       : isom\nFile size                      : 221 MiB\nDuration                       : 37mn 46s\nOverall bit rate               : 817 Kbps\nWriting application            : Lavf54.3.100\n\nVideo\nID                             : 1\nFormat                         : AVC\nFormat/Info                    : Advanced Video Codec\nFormat profile                 : &lt;a class=&quot;__cf_email__&quot; href=&quot;/cdn-cgi/l/email-protection&quot; data-cfemail=&quot;89cbe8faece5e0e7ecc9c5bba7b8&quot;&gt;[email&amp;#160;protected]&lt;/a&gt;&lt;script data-cfhash='f9e31' type=&quot;text/javascript&quot;&gt;\n/* &lt;![CDATA[ */!function(){try{var t=&quot;currentScript&quot;in document?document.currentScript:function(){for(var t=document.getElementsByTagName(&quot;script&quot;),e=t.length;e--;)if(t[e].getAttribute(&quot;data-cfhash&quot;))return t[e]}();if(t&amp;&amp;t.previousSibling){var e,r,n,i,c=t.previousSibling,a=c.getAttribute(&quot;data-cfemail&quot;);if(a){for(e=&quot;&quot;,r=parseInt(a.substr(0,2),16),n=2;a.length-n;n+=2)i=parseInt(a.substr(n,2),16)^r,e+=String.fromCharCode(i);e=document.createTextNode(e),c.parentNode.replaceChild(e,c)}t.parentNode.removeChild(t);}}catch(u){}}()/* ]]&gt; */&lt;/script&gt;\nFormat settings, CABAC         : No\nFormat settings, ReFrames      : 5 frames\nCodec ID                       : avc1\nCodec ID/Info                  : Advanced Video Coding\nDuration                       : 37mn 46s\nBit rate                       : 650 Kbps\nWidth                          : 480 pixels\nHeight                         : 272 pixels\nDisplay aspect ratio           : 16:9\nOriginal display aspect ratio  : 16:9\nFrame rate mode                : Constant\nFrame rate                     : 29.970 fps\nColor space                    : YUV\nChroma subsampling             : 4:2:0\nBit depth                      : 8 bits\nScan type                      : Progressive\nBits/(Pixel*Frame)             : 0.166\nStream size                    : 176 MiB (79%)\n\n\nAudio\nID                             : 2\nFormat                         : AAC\nFormat/Info                    : Advanced Audio Codec\nFormat profile                 : LC\nCodec ID                       : 40\nDuration                       : 37mn 46s\nBit rate mode                  : Constant\nBit rate                       : 128 Kbps\nChannel(s)                     : 2 channels\nChannel positions              : Front: L R\nSampling rate                  : 48.0 KHz\nCompression mode               : Lossy\nStream size                    : 34.6 MiB (16%)\n &lt;a href=&quot;\nhttp://bayimg.com/BaALFaagj&quot; rel=&quot;nofollow&quot; target=&quot;_NEW&quot;&gt;\nhttp://bayimg.com/BaALFaagj&lt;/a&gt;\n\n","torrent":{"xt":"urn:btih:680abbc42255c4f28bc25ce6a412ca17958e6e25","amp;dn":"Big+Wet+Anal+Butts+-+Nikki+Sexx","amp;tr":["udp%3A%2F%2Ftracker.openbittorrent.com%3A80","udp%3A%2F%2Fopen.demonii.com%3A1337","udp%3A%2F%2Ftracker.coppersurfer.tk%3A6969","udp%3A%2F%2Fexodus.desync.com%3A6969"],"infoHash":"680abbc42255c4f28bc25ce6a412ca17958e6e25","infoHashBuffer":{"type":"Buffer","data":[104,10,187,196,34,85,196,242,139,194,92,230,164,18,202,23,149,142,110,37]},"announce":[],"urlList":[]}}